<svg width="592" height="456" viewBox="0 0 592 456" fill="none" xmlns="http://www.w3.org/2000/svg">
<path fill-rule="evenodd" clip-rule="evenodd" d="M395.397 107C391.129 107 386.812 105.795 382.982 103.272L296.198 46.1293L190.056 62.6175C177.737 64.5434 166.192 56.1191 164.273 43.829C162.351 31.536 170.786 20.0202 183.105 18.1056L297.871 0.271514C303.428 -0.598509 309.095 0.640359 313.785 3.72908L407.856 65.6725C418.265 72.5257 421.132 86.4967 414.263 96.8807C409.919 103.441 402.731 107 395.397 107ZM579.877 40.1063C599.726 68.92 592.434 108.352 563.59 128.18C534.746 148.009 495.272 140.725 475.422 111.911C455.573 83.097 462.865 43.6649 491.709 23.8366C520.554 4.00834 560.028 11.2925 579.877 40.1063ZM225.832 204.846C224.944 203.617 224.109 202.298 223.221 200.703C220.353 196.291 217.477 191.367 215.099 186L193 267L264 257.614L225.832 204.846ZM168.217 353.978C154.177 353.978 141.551 346.907 133.953 336L55.9183 393.928C40.6093 405.293 37.4436 426.873 48.8478 442.13C55.6334 451.206 66.0472 456 76.5937 456C83.7714 456 91.014 453.779 97.2126 449.176L235.462 346.547C235.949 346.186 236.412 345.796 236.875 345.406L237 345.301L173.718 353.618C171.901 353.857 170.048 353.978 168.217 353.978ZM564.469 241.546L457.318 188.491L455.381 111.033L454.868 90.5845C455.079 86.3614 454.508 82.1551 452.981 78.0867C445.099 57.0609 419.268 37.5967 383.188 42.875L410.282 60.7411C423.63 69.5447 427.322 87.5543 418.513 100.893C413.126 109.044 404.069 113.912 394.284 113.912C388.604 113.912 383.087 112.255 378.328 109.117L313.454 66.3373C286.397 79.0067 262.872 95.3845 233.909 120.692C203.983 151.155 213.529 177.571 226.922 198.026C227.618 199.281 228.367 200.516 229.231 201.709L273.852 263.171L161.604 277.959C142.328 280.497 128.766 298.169 131.306 317.425C133.64 335.122 148.765 348 166.16 348C167.692 348 169.247 347.899 170.804 347.693L341.646 325.185C353.946 323.564 364.481 315.596 369.384 304.21C374.287 292.823 372.825 279.701 365.54 269.668L307.718 190.021C336.582 170.443 370.77 155.906 398.659 144.048L398.669 144.044C402.943 142.227 407.069 140.472 411.005 138.772L411.18 145.742L412.616 203.192C412.824 211.54 417.646 219.085 425.133 222.797L544.464 281.881C547.68 283.471 551.09 284.228 554.45 284.228C562.74 284.228 570.721 279.633 574.652 271.71C580.177 260.571 575.618 247.066 564.469 241.546ZM95 97H213V103H95V97ZM190 131H72V137H190V131ZM0 114H167V120H0V114ZM482 371H364V377H482V371ZM341 406H459V412H341V406ZM435 389H268V395H435V389Z" fill="black"/>
</svg>
